<svg width="25" height="13" viewBox="0 0 25 13" fill="none" xmlns="http://www.w3.org/2000/svg">
  <path opacity="0.35" d="M1.172 3.54441C1.172 2.34779 2.14205 1.37775 3.33866 1.37775H20.0053C21.2019 1.37775 22.172 2.3478 22.172 3.54441V9.54442C22.172 10.741 21.2019 11.7111 20.0053 11.7111H3.33866C2.14205 11.7111 1.172 10.741 1.172 9.54441V3.54441Z" stroke="white"/>
  <path opacity="0.4" d="M23.672 4.54443V8.54443C24.4767 8.20566 25 7.41757 25 6.54443C25 5.6713 24.4767 4.88321 23.672 4.54443Z" fill="white"/>
  <path d="M2.672 4.21108C2.672 3.4747 3.26895 2.87775 4.00533 2.87775H19.3387C20.075 2.87775 20.672 3.4747 20.672 4.21108V8.87775C20.672 9.61413 20.075 10.2111 19.3387 10.2111H4.00533C3.26895 10.2111 2.672 9.61413 2.672 8.87775V4.21108Z" fill="white"/>
</svg>
