<svg width="18" height="11" viewBox="0 0 18 11" fill="none" xmlns="http://www.w3.org/2000/svg">
  <path fill-rule="evenodd" clip-rule="evenodd" d="M16.3997 0.21106H15.3997C14.8474 0.21106 14.3997 0.658775 14.3997 1.21106V9.87773C14.3997 10.43 14.8474 10.8777 15.3997 10.8777H16.3997C16.9519 10.8777 17.3997 10.43 17.3997 9.87773V1.21106C17.3997 0.658775 16.9519 0.21106 16.3997 0.21106ZM10.733 2.54439H11.733C12.2853 2.54439 12.733 2.99211 12.733 3.54439V9.87773C12.733 10.43 12.2853 10.8777 11.733 10.8777H10.733C10.1807 10.8777 9.73299 10.43 9.73299 9.87773V3.54439C9.73299 2.99211 10.1807 2.54439 10.733 2.54439ZM7.06632 4.87773H6.06632C5.51404 4.87773 5.06632 5.32544 5.06632 5.87773V9.87773C5.06632 10.43 5.51404 10.8777 6.06632 10.8777H7.06632C7.61861 10.8777 8.06632 10.43 8.06632 9.87773V5.87773C8.06632 5.32544 7.61861 4.87773 7.06632 4.87773ZM2.39966 6.87773H1.39966C0.847373 6.87773 0.399658 7.32544 0.399658 7.87773V9.87773C0.399658 10.43 0.847373 10.8777 1.39966 10.8777H2.39966C2.95194 10.8777 3.39966 10.43 3.39966 9.87773V7.87773C3.39966 7.32544 2.95194 6.87773 2.39966 6.87773Z" fill="white"/>
</svg>
