<svg width="41" height="22" viewBox="0 0 41 22" fill="none" xmlns="http://www.w3.org/2000/svg">
  <path d="M3.86719 16.0889C6.55518 16.0889 8.15186 13.9868 8.15186 10.4272C8.15186 9.08691 7.89551 7.95898 7.40479 7.0874C6.69434 5.73242 5.47119 5 3.92578 5C1.62598 5 0 6.54541 0 8.71338C0 10.7495 1.46484 12.229 3.479 12.229C4.7168 12.229 5.72021 11.6504 6.21826 10.647H6.24023C6.24023 10.647 6.26953 10.647 6.27686 10.647C6.2915 10.647 6.34277 10.647 6.34277 10.647C6.34277 13.064 5.42725 14.5068 3.88184 14.5068C2.97363 14.5068 2.27051 14.0088 2.02881 13.2104H0.146484C0.461426 14.9463 1.93359 16.0889 3.86719 16.0889ZM3.93311 10.7275C2.71729 10.7275 1.85303 9.86328 1.85303 8.65479C1.85303 7.47559 2.76123 6.57471 3.94043 6.57471C5.11963 6.57471 6.02783 7.49023 6.02783 8.68408C6.02783 9.86328 5.1416 10.7275 3.93311 10.7275Z" fill="white"/>
  <path d="M11.243 15.9863C11.9388 15.9863 12.4148 15.4883 12.4148 14.8291C12.4148 14.1626 11.9388 13.6719 11.243 13.6719C10.5545 13.6719 10.0711 14.1626 10.0711 14.8291C10.0711 15.4883 10.5545 15.9863 11.243 15.9863ZM11.243 10.4932C11.9388 10.4932 12.4148 10.0024 12.4148 9.34326C12.4148 8.67676 11.9388 8.18604 11.243 8.18604C10.5545 8.18604 10.0711 8.67676 10.0711 9.34326C10.0711 10.0024 10.5545 10.4932 11.243 10.4932Z" fill="white"/>
  <path d="M19.2706 15.8325H21.0797V13.8623H22.5079V12.2656H21.0797V5.26367H18.4137C16.546 8.07617 15.0592 10.4272 14.107 12.1777V13.8623H19.2706V15.8325ZM15.8575 12.1997C17.088 10.0317 18.1866 8.2959 19.1974 6.80176H19.2999V12.3096H15.8575V12.1997Z" fill="white"/>
  <path d="M26.5365 15.8325H28.4262V5.26367H26.5438L23.7826 7.19727V9.01367L26.412 7.16797H26.5365V15.8325Z" fill="white"/>
</svg>
