<svg width="16" height="12" viewBox="0 0 16 12" fill="none" xmlns="http://www.w3.org/2000/svg">
  <path fill-rule="evenodd" clip-rule="evenodd" d="M8.03626 2.33897C10.2522 2.33907 12.3833 3.19051 13.9893 4.71731C14.1102 4.83518 14.3035 4.83369 14.4226 4.71397L15.5786 3.54731C15.6389 3.48658 15.6725 3.40433 15.672 3.31875C15.6715 3.23317 15.6369 3.15132 15.5759 3.09131C11.3608 -0.948241 4.71103 -0.948241 0.495931 3.09131C0.434872 3.15127 0.400228 3.2331 0.399665 3.31868C0.399102 3.40426 0.432666 3.48654 0.492931 3.54731L1.64926 4.71397C1.76829 4.83387 1.96174 4.83536 2.0826 4.71731C3.68875 3.19041 5.82015 2.33897 8.03626 2.33897ZM8.03626 6.13464C9.25375 6.13456 10.4278 6.5871 11.3303 7.40431C11.4523 7.52029 11.6446 7.51777 11.7636 7.39864L12.9183 6.23197C12.9791 6.17078 13.0128 6.08776 13.0119 6.0015C13.0111 5.91523 12.9756 5.83292 12.9136 5.77297C10.1654 3.21659 5.90946 3.21659 3.16126 5.77297C3.09919 5.83292 3.06377 5.91527 3.06295 6.00156C3.06214 6.08786 3.096 6.17087 3.15693 6.23197L4.31126 7.39864C4.43025 7.51777 4.62253 7.52029 4.7446 7.40431C5.64647 6.58764 6.81958 6.13514 8.03626 6.13464ZM10.3493 8.68846C10.351 8.77497 10.317 8.85837 10.2553 8.91897L8.25793 10.9346C8.19938 10.9939 8.11955 11.0272 8.03626 11.0272C7.95297 11.0272 7.87315 10.9939 7.8146 10.9346L5.81693 8.91897C5.75522 8.85832 5.72127 8.77489 5.7231 8.68839C5.72493 8.60188 5.76238 8.51996 5.8266 8.46197C7.10217 7.38309 8.97036 7.38309 10.2459 8.46197C10.3101 8.52001 10.3475 8.60195 10.3493 8.68846Z" fill="white"/>
</svg>
